<svg id="svg" version="1.1" xmlns="http://www.w3.org/2000/svg" xmlns:xlink="http://www.w3.org/1999/xlink" width="400" height="400" viewBox="0, 0, 400,400"><g id="svgg"><path id="path0" d="M95.357 149.417 C 80.541 152.669,72.187 163.706,72.208 180.000 C 72.218 187.326,72.757 189.888,75.489 195.600 C 82.241 209.717,101.009 215.350,116.052 207.774 C 118.916 206.331,119.353 206.346,118.774 207.867 C 117.822 210.371,117.879 210.400,123.746 210.400 C 131.074 210.400,130.776 210.659,134.031 201.461 C 134.875 199.075,135.776 196.870,136.032 196.561 C 136.678 195.783,159.692 195.725,160.284 196.500 C 160.493 196.775,161.440 199.250,162.386 202.000 C 164.355 207.721,165.178 209.279,166.564 209.911 C 167.891 210.515,189.898 210.662,190.490 210.070 C 190.760 209.800,190.927 206.084,190.956 199.724 L 191.000 189.800 194.400 189.710 C 206.584 189.386,212.604 187.732,217.138 183.461 C 224.466 176.558,224.759 162.753,217.728 155.686 C 212.329 150.260,206.903 149.267,184.100 149.534 L 178.400 149.600 178.360 177.700 C 178.338 193.155,178.200 206.229,178.053 206.753 C 177.579 208.444,178.017 209.422,169.626 187.941 C 167.852 183.398,166.400 179.429,166.400 179.121 C 166.400 178.812,166.235 178.389,166.032 178.180 C 165.711 177.848,162.669 170.219,156.790 155.000 C 154.509 149.096,155.330 149.600,147.985 149.600 L 141.668 149.600 138.462 157.700 C 136.698 162.155,132.464 172.946,129.052 181.680 C 121.269 201.606,122.384 199.669,119.988 197.428 C 117.588 195.183,116.573 195.111,113.993 197.005 C 106.992 202.144,96.285 201.502,90.469 195.593 C 82.970 187.975,82.940 171.498,90.412 164.026 C 94.094 160.344,99.862 158.627,105.400 159.565 C 107.962 159.999,109.350 160.563,114.307 163.187 C 116.659 164.432,117.752 163.912,120.355 160.310 C 122.976 156.683,122.953 156.435,119.787 154.176 C 113.284 149.535,103.500 147.629,95.357 149.417 M245.600 149.600 L 239.800 149.800 239.686 154.142 C 239.532 160.013,238.839 159.600,248.849 159.600 C 253.442 159.600,257.242 159.645,257.292 159.700 C 257.343 159.755,257.478 171.140,257.592 185.000 L 257.800 210.200 263.800 210.200 L 269.800 210.200 270.000 185.320 C 270.131 169.064,270.343 160.297,270.612 160.028 C 270.860 159.780,274.347 159.574,279.412 159.508 L 287.800 159.400 287.913 154.692 C 287.998 151.141,287.900 149.941,287.513 149.808 C 286.741 149.542,252.251 149.371,245.600 149.600 M225.384 150.100 C 225.279 150.375,225.240 164.010,225.297 180.400 L 225.400 210.200 231.145 210.311 C 235.041 210.387,237.069 210.274,237.445 209.962 C 238.022 209.484,238.323 151.708,237.757 150.233 C 237.437 149.397,225.700 149.271,225.384 150.100 M303.261 157.700 C 300.495 164.689,288.135 196.283,284.445 205.800 C 282.550 210.686,282.295 210.400,288.546 210.400 C 295.874 210.400,295.576 210.659,298.831 201.461 C 299.675 199.075,300.576 196.870,300.832 196.561 C 301.478 195.783,324.492 195.725,325.084 196.500 C 325.293 196.775,326.240 199.250,327.186 202.000 C 329.200 207.850,330.009 209.342,331.504 209.958 C 332.286 210.281,339.244 210.380,355.800 210.305 L 379.000 210.200 379.112 205.300 C 379.174 202.605,379.174 200.362,379.112 200.315 C 379.051 200.269,373.780 200.134,367.400 200.015 L 355.800 199.800 355.600 174.800 L 355.400 149.800 349.300 149.690 L 343.200 149.579 343.160 177.690 C 343.138 193.150,343.000 206.229,342.853 206.753 C 342.373 208.466,342.779 209.383,333.664 186.000 C 331.906 181.490,328.852 173.660,326.879 168.600 C 324.905 163.540,322.525 157.420,321.590 155.000 C 319.309 149.096,320.130 149.600,312.785 149.600 L 306.468 149.600 303.261 157.700 M200.200 159.158 C 206.761 159.788,210.040 163.035,210.074 168.931 C 210.120 176.806,206.269 179.733,196.155 179.512 L 191.000 179.400 190.893 169.490 L 190.786 159.579 191.693 159.215 C 192.802 158.770,195.942 158.749,200.200 159.158 M149.708 166.000 C 150.265 167.650,151.651 171.610,152.787 174.800 C 156.518 185.270,156.867 186.367,156.609 186.786 C 156.078 187.644,139.600 187.320,139.600 186.451 C 139.600 185.750,147.278 163.644,147.834 162.744 C 148.233 162.099,148.616 162.764,149.708 166.000 M314.508 166.000 C 315.065 167.650,316.451 171.610,317.587 174.800 C 321.318 185.270,321.667 186.367,321.409 186.786 C 320.878 187.644,304.400 187.320,304.400 186.451 C 304.400 185.750,312.078 163.644,312.634 162.744 C 313.033 162.099,313.416 162.764,314.508 166.000 M135.200 216.332 C 133.509 216.562,133.472 216.817,133.558 227.695 C 133.605 233.486,133.523 238.534,133.378 238.912 C 132.991 239.921,109.829 239.975,109.443 238.967 C 109.309 238.619,109.200 233.509,109.200 227.610 C 109.200 218.200,109.122 216.856,108.567 216.643 C 107.633 216.284,99.083 216.360,98.497 216.731 C 98.100 216.984,98.016 222.710,98.097 244.025 L 98.200 271.000 103.368 271.112 C 106.210 271.174,108.677 271.083,108.850 270.910 C 109.023 270.737,109.191 265.737,109.225 259.798 C 109.258 253.859,109.452 248.685,109.656 248.300 C 110.136 247.396,132.497 247.205,133.076 248.100 C 133.254 248.375,133.490 253.640,133.600 259.800 L 133.800 271.000 144.501 271.094 L 155.201 271.188 156.400 270.094 C 157.286 269.285,158.031 267.751,159.262 264.200 C 160.176 261.560,161.099 259.175,161.311 258.900 C 161.604 258.522,164.314 258.400,172.416 258.400 L 183.134 258.400 183.766 260.100 C 184.114 261.035,185.023 263.499,185.786 265.576 C 187.761 270.949,187.792 270.971,193.655 271.135 C 196.315 271.209,198.645 271.115,198.833 270.927 C 199.021 270.739,197.466 266.206,195.355 260.793 C 189.050 244.625,186.255 237.410,183.042 229.000 C 181.361 224.600,179.494 220.010,178.893 218.800 L 177.800 216.600 172.455 216.488 C 166.458 216.362,166.412 216.379,165.403 219.106 C 164.087 222.663,153.734 249.229,148.336 262.902 C 146.793 266.809,145.367 269.903,145.166 269.779 C 144.951 269.646,144.800 258.678,144.800 243.164 C 144.800 222.406,144.693 216.740,144.300 216.613 C 143.604 216.388,136.419 216.166,135.200 216.332 M216.486 216.807 C 199.477 221.264,191.586 241.699,200.349 258.598 C 207.613 272.605,228.956 276.373,240.786 265.736 C 243.328 263.451,243.308 263.077,240.488 260.287 C 237.701 257.529,237.102 257.465,233.921 259.589 C 220.356 268.648,205.223 255.926,208.923 238.574 C 210.818 229.689,216.146 225.363,224.800 225.681 C 229.176 225.843,229.426 225.920,234.724 228.777 C 236.972 229.988,237.794 229.621,240.184 226.336 C 242.446 223.226,242.443 222.775,240.149 221.023 C 234.233 216.506,224.354 214.746,216.486 216.807 M245.280 216.880 C 244.771 217.389,244.542 269.263,245.043 270.567 C 245.372 271.424,255.241 271.514,255.945 270.667 C 256.239 270.312,256.423 266.389,256.494 258.967 L 256.600 247.800 258.882 247.681 C 262.449 247.494,262.691 247.727,271.000 259.358 C 276.523 267.089,278.944 270.161,279.860 270.598 C 281.278 271.275,291.379 271.481,291.774 270.842 C 292.081 270.346,274.722 245.573,272.777 243.729 C 270.817 241.872,270.819 241.825,272.939 239.614 C 275.478 236.966,290.112 217.927,290.159 217.210 C 290.224 216.232,279.397 216.319,278.000 217.308 C 277.450 217.697,273.580 222.557,269.400 228.108 C 261.243 238.939,260.336 239.773,257.474 239.054 L 256.400 238.785 256.400 228.366 C 256.400 221.949,256.241 217.650,255.986 217.174 C 255.484 216.236,246.180 215.980,245.280 216.880 M173.095 229.700 C 173.345 230.415,175.009 235.124,176.793 240.164 C 178.577 245.204,179.944 249.569,179.831 249.864 C 179.587 250.498,165.008 250.661,164.621 250.034 C 164.443 249.746,167.098 241.924,171.795 228.900 C 172.107 228.035,172.623 228.353,173.095 229.700 " stroke="none" fill="#063d5d" fill-rule="evenodd"></path><path id="path1" d="M223.887 109.300 C 220.505 113.315,211.661 123.890,204.234 132.800 C 188.638 151.511,189.338 149.474,198.474 149.553 C 207.234 149.628,212.994 151.350,217.300 155.179 L 219.200 156.868 219.200 155.602 L 219.200 154.337 222.184 154.468 L 225.169 154.600 225.284 152.200 L 225.400 149.800 231.370 149.689 C 238.094 149.564,237.984 149.517,237.994 152.500 C 238.004 155.623,239.515 155.264,239.680 152.100 L 239.800 149.800 246.574 149.578 C 251.158 149.429,253.397 149.208,253.501 148.896 C 253.639 148.483,259.158 143.645,271.000 133.558 C 273.200 131.684,279.230 126.748,284.400 122.590 C 294.013 114.857,294.903 113.870,292.400 113.711 C 271.210 112.365,251.657 108.874,236.786 103.780 C 229.819 101.394,230.959 100.906,223.887 109.300 M190.892 171.281 L 191.000 179.400 195.600 179.522 C 201.405 179.676,203.543 179.396,203.558 178.479 C 203.564 178.106,203.684 176.540,203.824 175.000 C 204.409 168.584,200.358 164.000,194.102 164.000 C 193.137 164.000,191.995 163.812,191.565 163.581 C 190.800 163.172,190.786 163.333,190.892 171.281 M168.686 175.998 C 167.429 177.537,166.400 178.999,166.400 179.247 C 166.400 179.719,171.525 192.858,171.827 193.160 C 171.922 193.255,172.000 188.803,172.000 183.267 C 172.000 171.638,172.089 171.832,168.686 175.998 M61.249 192.432 C 53.420 197.590,40.400 209.443,40.400 211.412 C 40.400 213.732,76.538 260.675,91.045 277.200 C 100.072 287.482,103.530 289.600,111.295 289.600 C 119.722 289.600,124.341 287.439,129.384 281.138 C 133.973 275.405,134.001 275.276,130.700 275.119 L 128.200 275.000 128.000 263.719 C 127.872 256.503,127.646 252.285,127.372 252.011 C 127.088 251.727,124.000 251.620,118.172 251.692 L 109.400 251.800 109.200 261.400 L 109.000 271.000 106.200 271.200 L 103.400 271.400 103.400 273.200 L 103.400 275.000 98.000 275.000 L 92.600 275.000 92.497 247.900 C 92.441 232.995,92.541 220.800,92.721 220.800 C 95.054 220.800,93.773 216.314,91.285 215.771 C 77.314 212.726,69.737 206.007,66.955 194.200 C 65.795 189.278,65.959 189.329,61.249 192.432 M203.800 192.419 C 199.835 193.823,192.342 194.782,191.406 194.005 C 190.741 193.453,190.463 206.851,191.119 207.883 C 191.384 208.300,206.321 193.404,207.346 191.700 C 207.738 191.048,207.577 191.081,203.800 192.419 M148.582 201.097 C 148.352 201.264,145.512 204.680,142.270 208.689 C 135.594 216.944,135.664 216.319,141.400 216.499 L 144.600 216.600 144.800 238.800 L 145.000 261.000 148.078 253.200 C 149.772 248.910,153.145 240.270,155.574 234.000 C 158.004 227.730,160.225 222.150,160.509 221.600 C 161.073 220.508,163.244 220.007,164.152 220.760 C 164.530 221.073,164.823 220.696,165.358 219.210 C 166.376 216.378,166.418 216.362,172.455 216.488 L 177.800 216.600 178.921 218.692 L 180.042 220.783 182.221 218.341 C 183.419 216.998,184.400 215.749,184.400 215.566 C 184.400 215.383,179.004 215.181,172.409 215.117 L 160.417 215.000 159.389 213.971 C 158.473 213.055,157.583 210.917,154.824 203.000 L 154.127 201.000 151.563 200.897 C 150.153 200.840,148.812 200.930,148.582 201.097 M170.637 211.400 C 170.997 211.950,171.430 212.400,171.599 212.400 C 171.768 212.400,171.993 211.950,172.098 211.400 C 172.266 210.520,172.150 210.400,171.135 210.400 C 169.997 210.400,169.990 210.413,170.637 211.400 M184.710 212.500 C 184.965 215.283,184.982 215.287,187.053 213.096 C 189.151 210.875,189.042 210.400,186.435 210.400 L 184.517 210.400 184.710 212.500 M123.303 231.900 C 121.320 234.265,118.983 236.965,118.110 237.900 L 116.523 239.600 122.261 239.600 L 128.000 239.600 128.000 234.233 C 128.000 226.124,128.103 226.175,123.303 231.900 " stroke="none" fill="#c92525" fill-rule="evenodd"></path></g></svg>